<svg width="1605" height="250" viewBox="0 0 1605 250" fill="none" xmlns="http://www.w3.org/2000/svg">
<path d="M264.591 0C318.57 0 362.315 43.4792 362.315 97.1299C362.315 150.781 318.57 193.905 264.591 193.905H97.3665C43.3879 193.898 0 150.774 0 97.1299C0 43.4857 43.3879 0 97.3665 0H264.591ZM195.083 97.1299C195.083 135.701 225.778 165.854 264.578 165.854C303.378 165.854 334.073 135.701 334.073 97.1299C334.073 58.5592 303.028 28.0574 264.578 28.0574C226.129 28.0574 195.083 58.914 195.083 97.1299ZM167.212 97.1299C167.212 70.1304 178.146 45.5884 195.784 28.0574H180.969C142.163 28.0574 111.474 58.914 111.474 97.1299C111.474 135.346 140.754 164.455 178.153 165.854H195.791C178.14 148.323 167.205 124.129 167.205 97.1299H167.212ZM27.8719 97.1299C27.8719 135.346 58.5667 165.854 97.3665 165.854H112.182C94.5436 148.323 83.6091 124.129 83.6091 97.1299C83.6091 70.1304 94.5436 45.5884 112.182 28.0574H97.3665C58.5601 28.0574 27.8719 58.914 27.8719 97.1299Z" fill="white"/>
<path d="M506.112 13.3276C496.46 8.07755 485.433 5.44922 473.03 5.44922C460.628 5.44922 448.444 8.64921 437.88 15.0426C427.309 21.436 418.695 30.1161 412.038 41.0762V8.18925H381.025V185.95H412.038V107.856C412.038 92.5586 414.279 79.3119 418.754 68.1217C423.237 56.9382 429.491 48.3173 437.536 42.2655C445.575 36.2204 455.108 33.1912 466.135 33.1912C478.313 33.1912 487.958 37.0155 495.085 44.6639C502.205 52.3189 505.768 62.0766 505.768 73.9501V185.95H537.124V68.1283C537.124 55.7949 534.367 44.8939 528.854 35.4187C523.34 25.9436 515.757 18.5843 506.112 13.3276Z" fill="white"/>
<path d="M665.486 6.81861C662.042 5.91184 657.216 5.44531 651.015 5.44531C639.3 5.44531 628.101 9.09869 617.418 16.4054C606.735 23.7188 599.324 32.8457 595.192 43.8058V8.19192H564.18V185.952H595.192V118.477C595.192 99.9798 597.486 84.4003 602.087 71.7252C606.682 59.0501 612.942 49.5815 620.869 43.2998C628.795 37.0247 637.581 33.8838 647.233 33.8838C654.129 33.8838 660.211 34.5672 665.5 35.9405V6.81861H665.486Z" fill="white"/>
<path d="M818.713 157.866C816.644 155.809 815.612 152.163 815.612 146.906V67.445C815.612 55.3415 812.565 44.6113 806.482 35.2479C800.394 25.8845 791.839 18.5843 780.812 13.3276C769.785 8.07755 757.032 5.44922 742.561 5.44922C728.089 5.44922 716.487 7.84757 705.691 12.6443C694.889 17.441 686.275 24.3469 679.849 33.3687C673.417 42.3904 669.622 52.9497 668.478 65.0532H699.49C700.403 54.323 704.713 45.9912 712.415 40.0512C720.11 34.1177 730.159 31.1477 742.567 31.1477C754.976 31.1477 765.653 34.1177 773.236 40.0512C780.819 45.9912 784.607 53.4097 784.607 62.3131C784.607 66.8864 783.172 70.4807 780.296 73.1024C777.421 75.7308 773.229 77.3866 767.716 78.07L726.708 83.5501C707.41 86.0667 692.536 92.0001 682.084 101.364C671.625 110.727 666.402 122.942 666.402 138.009C666.402 148.062 668.987 156.907 674.157 164.555C679.327 172.21 686.506 178.144 695.696 182.369C704.878 186.594 715.449 188.703 727.402 188.703C740.954 188.703 753.132 185.851 763.928 180.141C774.723 174.438 782.418 166.783 787.013 157.196C787.469 167.703 790.57 175.41 796.315 180.319C802.053 185.234 809.755 187.684 819.4 187.684C823.532 187.684 828.239 187.113 833.528 185.969V160.284C831.683 160.744 829.852 160.968 828.014 160.968C823.883 160.968 820.775 159.942 818.713 157.886V157.866ZM784.944 106.489C784.944 123.842 780.23 137.654 770.816 147.931C761.396 158.208 748.187 163.346 731.19 163.346C721.307 163.346 713.268 161.007 707.066 156.322C700.865 151.644 697.765 145.309 697.765 137.313C697.765 128.869 700.574 122.127 706.207 117.107C711.833 112.087 720.275 108.664 731.534 106.83L784.944 98.6104V106.489Z" fill="white"/>
<path d="M1081.31 12.986C1071.88 7.96584 1060.86 5.44922 1048.22 5.44922C1035.59 5.44922 1023.47 8.87262 1013.25 15.726C1003.02 22.5794 995.383 31.4828 990.332 42.443C986.887 30.576 979.992 21.436 969.653 15.0426C959.313 8.65578 946.679 5.44922 931.745 5.44922C919.105 5.44922 908.197 8.64921 899.008 15.0426C889.818 21.436 882.923 30.2278 878.328 41.4179V8.18925H847.316V185.95H878.328V96.8954C878.328 84.3385 880.166 73.2076 883.842 63.5025C887.511 53.7973 892.853 46.208 899.867 40.728C906.875 35.2479 915.205 32.5079 924.85 32.5079C937.027 32.5079 946.441 36.1613 953.105 43.468C959.763 50.7813 963.101 60.7099 963.101 73.2667V185.95H994.457V96.8954C994.457 77.4917 998.536 61.9057 1006.69 50.144C1014.84 38.3888 1026.27 32.5079 1040.98 32.5079C1053.16 32.5079 1062.63 36.1613 1069.41 43.468C1076.18 50.7813 1079.57 60.7099 1079.57 73.2667V185.95H1110.59V66.755C1110.59 54.4216 1108.05 43.6389 1103 34.3871C1097.95 25.142 1090.71 18.0061 1081.29 12.9794L1081.31 12.986Z" fill="white"/>
<path d="M1265.46 17.2636C1252.71 9.38514 1237.6 5.44922 1220.14 5.44922C1207.97 5.44922 1196.53 8.07755 1185.85 13.3276C1175.17 18.5843 1167.41 25.3128 1162.59 33.5329V8.18925H1131.58V250.002H1162.59V161.979C1168.33 169.746 1176.38 176.14 1186.72 181.16C1197.06 186.18 1207.85 188.696 1219.11 188.696C1236.57 188.696 1251.79 184.701 1264.77 176.711C1277.75 168.721 1287.63 157.82 1294.41 144.002C1301.19 130.19 1304.58 114.492 1304.58 96.9085C1304.58 79.325 1301.25 63.6339 1294.58 49.8154C1287.92 36.0035 1278.21 25.1551 1265.46 17.2767V17.2636ZM1265.63 130.637C1261.03 140.342 1254.43 147.878 1245.82 153.24C1237.21 158.609 1227.38 161.289 1216.35 161.289C1205.33 161.289 1195.5 158.609 1186.89 153.24C1178.28 147.878 1171.66 140.342 1167.08 130.637C1162.48 120.931 1160.19 109.689 1160.19 96.902C1160.19 84.1151 1162.48 73.2141 1167.08 63.509C1171.67 53.8039 1178.28 46.2738 1186.89 40.9054C1195.5 35.5436 1205.33 32.8561 1216.35 32.8561C1227.38 32.8561 1237.49 35.5436 1245.99 40.9054C1254.49 46.2738 1261.04 53.7513 1265.63 63.3382C1270.23 72.9316 1272.52 84.1217 1272.52 96.902C1272.52 109.682 1270.22 120.938 1265.63 130.637Z" fill="white"/>
<path d="M1444.45 16.751C1432.05 9.2143 1417.45 5.44922 1400.69 5.44922C1383.92 5.44922 1367.95 9.50342 1354.85 17.6052C1341.76 25.7136 1331.82 36.7329 1325.04 50.6565C1318.27 64.5866 1314.88 80.0018 1314.88 96.8954C1314.88 113.789 1318.37 129.211 1325.39 143.134C1332.4 157.064 1342.5 168.136 1355.71 176.356C1368.92 184.576 1384.25 188.69 1401.72 188.69C1415.5 188.69 1427.96 186.403 1439.11 181.843C1450.25 177.276 1459.55 170.489 1467.02 161.46C1474.49 152.445 1479.25 141.656 1481.32 129.092H1451C1448.93 139.369 1443.47 147.366 1434.63 153.069C1425.78 158.779 1415.04 161.631 1402.41 161.631C1385.18 161.631 1371.45 155.869 1361.23 144.337C1352.11 134.06 1347.07 120.176 1346.08 102.724H1481.67C1482.12 97.927 1482.35 93.4786 1482.35 89.3652C1482.58 74.0683 1479.42 60.0265 1472.88 47.2397C1466.33 34.4528 1456.85 24.2943 1444.45 16.7576V16.751ZM1347.63 77.3735C1348.72 71.8146 1350.32 66.617 1352.44 61.7875C1356.8 51.8524 1363.12 44.2631 1371.39 39.013C1379.66 33.7629 1389.43 31.1346 1400.69 31.1346C1410.33 31.1346 1418.72 33.0795 1425.84 36.9563C1432.96 40.8397 1438.48 46.3198 1442.38 53.3965C1446.28 60.4799 1448.58 68.47 1449.27 77.3735H1347.62H1347.63Z" fill="white"/>
<path d="M1589.7 5.45188C1577.98 5.45188 1566.78 9.10526 1556.1 16.412C1545.42 23.7253 1538.01 32.8522 1533.87 43.8124V8.19192H1502.86V185.952H1533.87V118.477C1533.87 99.9798 1536.17 84.4003 1540.76 71.7252C1545.36 59.0501 1551.62 49.5815 1559.54 43.2998C1567.47 37.0247 1576.26 33.8838 1585.91 33.8838C1592.8 33.8838 1598.89 34.5672 1604.17 35.9405V6.81861C1600.73 5.91184 1595.9 5.44531 1589.7 5.44531L1589.7 5.45188Z" fill="white"/>
</svg>
